<svg id="Capa_1" enable-background="new 0 0 512 512" height="512" viewBox="0 0 512 512" width="512" xmlns="http://www.w3.org/2000/svg" xmlns:xlink="http://www.w3.org/1999/xlink"><linearGradient id="SVGID_1_" gradientUnits="userSpaceOnUse" x1="256" x2="256" y1="512" y2="0"><stop offset="0" stop-color="#5558ff"/><stop offset="1" stop-color="#00c0ff"/></linearGradient><linearGradient id="SVGID_2_" gradientUnits="userSpaceOnUse" x1="256" x2="256" y1="361" y2="151"><stop offset="0" stop-color="#addcff"/><stop offset=".5028" stop-color="#eaf6ff"/><stop offset="1" stop-color="#eaf6ff"/></linearGradient><g><path d="m256 512c-141.574 0-256-114.389-256-256 0-141.575 114.39-256 256-256 141.575 0 256 114.389 256 256 0 141.574-114.389 256-256 256z" fill="url(#SVGID_1_)"/><g><g><path d="m226 151h-60c-8.284 0-15 6.716-15 15v180c0 8.284 6.716 15 15 15h60c8.284 0 15-6.716 15-15v-180c0-8.284-6.716-15-15-15zm120 0h-60c-8.284 0-15 6.716-15 15v180c0 8.284 6.716 15 15 15h60c8.284 0 15-6.716 15-15v-180c0-8.284-6.716-15-15-15z" fill="url(#SVGID_2_)"/></g></g></g></svg>