<svg xmlns="http://www.w3.org/2000/svg" xmlns:xlink="http://www.w3.org/1999/xlink" viewBox="0 0 512 512"><defs><linearGradient id="linear-gradient" x1="256" y1="6.64" x2="256" y2="509.31" gradientUnits="userSpaceOnUse"><stop offset="0" stop-color="#fac103"/><stop offset="0.28" stop-color="#f8be03"/><stop offset="0.51" stop-color="#f3b303"/><stop offset="0.73" stop-color="#eba204"/><stop offset="0.94" stop-color="#de8905"/><stop offset="1" stop-color="#da8005"/></linearGradient><radialGradient id="radial-gradient" cx="258.97" cy="181.89" r="270.58" gradientTransform="translate(-17.63 15.72) scale(0.98 0.98)" xlink:href="#linear-gradient"/><linearGradient id="linear-gradient-2" x1="22.25" y1="255.34" x2="487.83" y2="255.34" xlink:href="#linear-gradient"/></defs><title>pause-other</title><g style="isolation:isolate"><g id="Layer_1" data-name="Layer 1"><g id="_Group_" data-name="&lt;Group&gt;"><circle id="_Path_" data-name="&lt;Path&gt;" cx="256" cy="256" r="255.02" fill="url(#linear-gradient)"/><circle id="_Path_2" data-name="&lt;Path&gt;" cx="256" cy="256" r="232.52" fill="url(#radial-gradient)"/></g><path id="_Compound_Path_" data-name="&lt;Compound Path&gt;" d="M255,488.13c-128.36,0-232.79-104.43-232.79-232.79S126.68,22.55,255,22.55,487.83,127,487.83,255.34,383.4,488.13,255,488.13Zm0-463.71C127.71,24.42,24.12,128,24.12,255.34S127.71,486.26,255,486.26,486,382.67,486,255.34,382.37,24.42,255,24.42Z" fill="url(#linear-gradient-2)"/><g style="mix-blend-mode:soft-light"><path d="M315.87,366.28a31.51,31.51,0,0,1-31.51-31.51V177.23a31.51,31.51,0,1,1,63,0V334.77A31.51,31.51,0,0,1,315.87,366.28Z" fill="#fff"/><path d="M196.13,366.28a31.51,31.51,0,0,1-31.51-31.51V177.23a31.51,31.51,0,0,1,63,0V334.77A31.51,31.51,0,0,1,196.13,366.28Z" fill="#fff"/></g><g style="mix-blend-mode:soft-light"><path d="M315.87,366.28a31.51,31.51,0,0,1-31.51-31.51V177.23a31.51,31.51,0,1,1,63,0V334.77A31.51,31.51,0,0,1,315.87,366.28Z" fill="#fff"/><path d="M196.13,366.28a31.51,31.51,0,0,1-31.51-31.51V177.23a31.51,31.51,0,0,1,63,0V334.77A31.51,31.51,0,0,1,196.13,366.28Z" fill="#fff"/></g><path id="_Path_3" data-name="&lt;Path&gt;" d="M324.07,185.7a433.15,433.15,0,0,1,161.21,30.92C466.85,107,371.52,23.48,256.66,23.48c-128.05,0-231.85,103.8-231.85,231.86A232.94,232.94,0,0,0,29.32,301,432.79,432.79,0,0,1,324.07,185.7Z" fill="#fff" opacity="0.15"/></g></g></svg>