<svg xmlns="http://www.w3.org/2000/svg" xmlns:xlink="http://www.w3.org/1999/xlink" viewBox="0 0 512 512"><defs><linearGradient id="linear-gradient" x1="256" y1="5.33" x2="256" y2="503.26" gradientUnits="userSpaceOnUse"><stop offset="0" stop-color="#33c458"/><stop offset="0.23" stop-color="#33c156"/><stop offset="0.42" stop-color="#33b651"/><stop offset="0.6" stop-color="#33a549"/><stop offset="0.77" stop-color="#328c3d"/><stop offset="0.94" stop-color="#326c2e"/><stop offset="1" stop-color="#325e27"/></linearGradient><radialGradient id="radial-gradient" cx="274.21" cy="255.41" r="283.49" gradientTransform="translate(-17.63 2.69) scale(0.98 0.98)" xlink:href="#linear-gradient"/><linearGradient id="linear-gradient-2" x1="22.25" y1="255.34" x2="487.83" y2="255.34" xlink:href="#linear-gradient"/></defs><title>play-other</title><g style="isolation:isolate"><g id="Layer_1" data-name="Layer 1"><g id="_Group_" data-name="&lt;Group&gt;"><circle id="_Path_" data-name="&lt;Path&gt;" cx="256" cy="256" r="255.02" fill="url(#linear-gradient)"/><path id="_Path_2" data-name="&lt;Path&gt;" d="M488.39,248.39c4.29,134.43-105.57,244.3-240,240-121.74-3.89-220.9-103-224.78-224.78-4.29-134.43,105.57-244.3,240-240C385.35,27.49,484.51,126.65,488.39,248.39Z" fill="url(#radial-gradient)"/></g><path id="_Compound_Path_" data-name="&lt;Compound Path&gt;" d="M255,488.13c-128.36,0-232.79-104.43-232.79-232.79S126.68,22.55,255,22.55,487.83,127,487.83,255.34,383.4,488.13,255,488.13Zm0-463.71C127.71,24.42,24.12,128,24.12,255.34S127.71,486.26,255,486.26,486,382.67,486,255.34,382.37,24.42,255,24.42Z" fill="url(#linear-gradient-2)"/><path d="M163.3,377.42c-8.09,0-14.43-6.58-14.43-15V149.55c0-8.39,6.34-15,14.43-15a15.62,15.62,0,0,1,7.78,2.14L355.46,243.17a14.55,14.55,0,0,1,0,25.65L171.08,375.27a15.61,15.61,0,0,1-7.78,2.14Z" fill="#fff" style="mix-blend-mode:soft-light"/><path d="M163.3,377.42c-8.09,0-14.43-6.58-14.43-15V149.55c0-8.39,6.34-15,14.43-15a15.62,15.62,0,0,1,7.78,2.14L355.46,243.17a14.55,14.55,0,0,1,0,25.65L171.08,375.27a15.61,15.61,0,0,1-7.78,2.14Z" fill="#fff" style="mix-blend-mode:soft-light"/><path id="_Path_3" data-name="&lt;Path&gt;" d="M324.07,185.7a433.15,433.15,0,0,1,161.21,30.92C466.85,107,371.52,23.48,256.66,23.48c-128.05,0-231.85,103.81-231.85,231.86A232.94,232.94,0,0,0,29.32,301,432.79,432.79,0,0,1,324.07,185.7Z" fill="#fff" opacity="0.15"/></g></g></svg>