<svg id="Layer_1" data-name="Layer 1" xmlns="http://www.w3.org/2000/svg" viewBox="0 0 512 512"><title>graph</title><g id="graph"><rect id="label" width="512" height="511.99" fill="#f1b75e"/><g id="graph-2" data-name="graph"><path d="M146.43,352.1H173a9.25,9.25,0,0,0,9.24-9.22V270.22A9.25,9.25,0,0,0,173,261H146.43a9.25,9.25,0,0,0-9.22,9.23v72.66A9.25,9.25,0,0,0,146.43,352.1Z" fill="#fff"/><path d="M210.64,217.17a9.25,9.25,0,0,0-9.23,9.23V342.88a9.25,9.25,0,0,0,9.23,9.22h26.52a9.26,9.26,0,0,0,9.23-9.22V226.4a9.26,9.26,0,0,0-9.23-9.23Z" fill="#fff"/><path d="M274.84,157.2a9.25,9.25,0,0,0-9.22,9.23V342.88a9.25,9.25,0,0,0,9.22,9.22h26.52a9.25,9.25,0,0,0,9.24-9.22V166.43a9.26,9.26,0,0,0-9.24-9.23Z" fill="#fff"/><path d="M329.81,247.15v95.73A9.25,9.25,0,0,0,339,352.1h26.52a9.25,9.25,0,0,0,9.22-9.22V247.15a9.25,9.25,0,0,0-9.22-9.22H339A9.25,9.25,0,0,0,329.81,247.15Z" fill="#fff"/><path d="M375.37,358.74H136.64a9.24,9.24,0,0,0-9.22,9.22v19.61a9.25,9.25,0,0,0,9.22,9.23H375.37a9.25,9.25,0,0,0,9.22-9.23V368A9.24,9.24,0,0,0,375.37,358.74Z" fill="#fff"/><path d="M157.68,247.44a8.46,8.46,0,0,0,8.45-8.46c0-.24,0-.45-.07-.68l54.36-36.41A8.41,8.41,0,0,0,231.88,194a8.57,8.57,0,0,0-.27-2l51.54-60.68a8,8,0,0,0,5.61.49l53.63,75.54a8.37,8.37,0,0,0-1.34,4.53,8.46,8.46,0,1,0,8.46-8.46,8.37,8.37,0,0,0-1.34.13l-54-76.1a8.44,8.44,0,1,0-16-3.8,8.29,8.29,0,0,0,.38,2.37L227.24,186.5a8.31,8.31,0,0,0-3.81-.95,8.4,8.4,0,0,0-7.93,11.34l-52.78,35.34a8.44,8.44,0,1,0-5,15.22Z" fill="#fff"/></g></g></svg>