<?xml version="1.0" ?><svg id="Layer_1" style="enable-background:new 0 0 512 512;" version="1.1" viewBox="0 0 512 512" xml:space="preserve" xmlns="http://www.w3.org/2000/svg" xmlns:xlink="http://www.w3.org/1999/xlink"><style type="text/css">
	.st0{fill:#FFCE6C;}
	.st1{fill:#ED6F62;}
	.st2{fill:#7DBAE7;}
	.st3{fill:#A6D17A;}
</style><g><rect class="st0" height="18.7" id="XMLID_43_" width="82.6" x="6" y="264.9"/><rect class="st0" height="18.7" id="XMLID_42_" width="82.6" x="6" y="339.8"/><rect class="st0" height="18.7" id="XMLID_41_" width="82.6" x="6" y="377.2"/><rect class="st0" height="18.7" id="XMLID_40_" width="82.6" x="6" y="152.5"/><rect class="st0" height="18.7" id="XMLID_39_" width="82.6" x="6" y="190"/><rect class="st0" height="18.7" id="XMLID_38_" width="82.6" x="6" y="227.4"/><rect class="st0" height="18.7" id="XMLID_37_" width="82.6" x="6" y="302.3"/><rect class="st0" height="18.7" id="XMLID_36_" width="82.6" x="6" y="414.7"/><rect class="st0" height="19.7" id="XMLID_35_" width="82.6" x="6" y="452.1"/><rect class="st1" height="18.7" id="XMLID_34_" width="82.6" x="110.3" y="77.6"/><rect class="st1" height="18.7" id="XMLID_33_" width="82.6" x="110.3" y="227.4"/><rect class="st1" height="18.7" id="XMLID_32_" width="82.6" x="110.3" y="264.9"/><rect class="st1" height="18.7" id="XMLID_31_" width="82.6" x="110.3" y="115.1"/><rect class="st1" height="19.7" id="XMLID_30_" width="82.6" x="110.3" y="452.1"/><rect class="st1" height="18.7" id="XMLID_29_" width="82.6" x="110.3" y="414.7"/><rect class="st1" height="18.7" id="XMLID_28_" width="82.6" x="110.3" y="152.5"/><rect class="st1" height="18.7" id="XMLID_27_" width="82.6" x="110.3" y="377.2"/><rect class="st1" height="18.7" id="XMLID_26_" width="82.6" x="110.3" y="302.3"/><rect class="st1" height="18.7" id="XMLID_25_" width="82.6" x="110.3" y="339.8"/><rect class="st1" height="18.7" id="XMLID_24_" width="82.6" x="110.3" y="190"/><rect class="st1" height="18.7" id="XMLID_23_" width="82.6" x="110.3" y="40.2"/><rect class="st2" height="17.3" id="XMLID_22_" width="82.6" x="214.7" y="341.2"/><rect class="st2" height="18.7" id="XMLID_21_" width="82.6" x="214.7" y="414.7"/><rect class="st2" height="18.7" id="XMLID_20_" width="82.6" x="214.7" y="377.2"/><rect class="st2" height="19.7" id="XMLID_19_" width="82.6" x="214.7" y="452.1"/><rect class="st3" height="18.7" id="XMLID_18_" width="82.6" x="319" y="227.4"/><rect class="st3" height="18.7" id="XMLID_17_" width="82.6" x="319" y="414.7"/><rect class="st3" height="19.7" id="XMLID_16_" width="82.6" x="319" y="452.1"/><rect class="st3" height="18.7" id="XMLID_15_" width="82.6" x="319" y="377.2"/><rect class="st3" height="18.7" id="XMLID_14_" width="82.6" x="319" y="302.3"/><rect class="st3" height="18.7" id="XMLID_13_" width="82.6" x="319" y="339.8"/><rect class="st3" height="18.7" id="XMLID_12_" width="82.6" x="319" y="264.9"/><rect class="st2" height="18.7" id="XMLID_11_" width="82.6" x="423.4" y="264.9"/><rect class="st2" height="18.7" id="XMLID_10_" width="82.6" x="423.4" y="227.4"/><rect class="st2" height="18.7" id="XMLID_9_" width="82.6" x="423.4" y="190"/><rect class="st2" height="18.7" id="XMLID_8_" width="82.6" x="423.4" y="115.1"/><rect class="st2" height="18.7" id="XMLID_7_" width="82.6" x="423.4" y="77.6"/><rect class="st2" height="18.7" id="XMLID_6_" width="82.6" x="423.4" y="152.5"/><rect class="st2" height="19.7" id="XMLID_5_" width="82.6" x="423.4" y="452.1"/><rect class="st2" height="18.7" id="XMLID_4_" width="82.6" x="423.4" y="339.8"/><rect class="st2" height="18.7" id="XMLID_3_" width="82.6" x="423.4" y="377.2"/><rect class="st2" height="18.7" id="XMLID_2_" width="82.6" x="423.4" y="414.7"/><rect class="st2" height="18.7" id="XMLID_1_" width="82.6" x="423.4" y="302.3"/></g></svg>
