<svg id="Capa_1" enable-background="new 0 0 512 512" height="512" viewBox="0 0 512 512" width="512" xmlns="http://www.w3.org/2000/svg" xmlns:xlink="http://www.w3.org/1999/xlink"><linearGradient id="SVGID_1_" gradientUnits="userSpaceOnUse" x1="256" x2="256" y1="512" y2="0"><stop offset="0" stop-color="#fd3a84"/><stop offset="1" stop-color="#ffa68d"/></linearGradient><linearGradient id="SVGID_2_" gradientUnits="userSpaceOnUse" x1="256" x2="256" y1="361" y2="151"><stop offset="0" stop-color="#ffc2cc"/><stop offset=".9973" stop-color="#fff2f4"/></linearGradient><g><path d="m256 512c-141.575 0-256-114.388-256-256 0-141.575 114.389-256 256-256 141.575 0 256 114.39 256 256 0 141.575-114.389 256-256 256z" fill="url(#SVGID_1_)"/><path d="m346 361h-180c-8.284 0-15-6.716-15-15v-180c0-8.284 6.716-15 15-15h180c8.284 0 15 6.716 15 15v180c0 8.284-6.716 15-15 15z" fill="url(#SVGID_2_)"/></g></svg>